<svg id="Layer_1" data-name="Layer 1" xmlns="http://www.w3.org/2000/svg" width="64" height="64"><path d="M47.11 9.54c-1.33 0-19.58 21-19.91 21S21 21.21 19.36 20 7 27.88 7 27.88c.33 1 6.83 8.41 11.25 14.08s8.42 12.5 10.42 12.5 3.91-2.84 8.91-8.92S56.45 22 57 20.71 48.45 9.54 47.11 9.54zm1.13 19.38s-1.16-2.25-1.44-2.22-.78.34-.65.5a10.79 10.79 0 011.21 2.22c-.09.15-.75 1.31-.9 1s-1-2-1.25-2-.66.56-.56.78 1 2 1 2-.46 1-.53.9a16.64 16.64 0 00-1.18-2.25c-.19 0-.79.54-.72.66a14.81 14.81 0 011.3 2.49c-.09.22-1 1.47-1.09 1.31a26.55 26.55 0 00-1.63-2.62c-.15 0-.84.59-.69.81s1.72 2.69 1.57 2.87-.47 1.35-.82 1.19-1.78-3.19-2-3.22-.65.5-.68.63 2.06 3.34 1.87 3.59A15.74 15.74 0 0140 39.14c-.13 0-2.16-3.44-2.16-3.44s-.72.69-.65.84 2 3.53 2 3.53-.82 1.32-.94 1.28-1.78-3.62-2.06-3.62-.63.31-.57.59 2 3.66 1.91 3.85-.69 1.47-.94 1.34-2.12-3.81-2.31-3.81-.69.65-.56.81 2.28 3.63 2.15 3.88a9.75 9.75 0 01-.87 1.06l-2.41-4.22s-.65.34-.53.66a43.51 43.51 0 012.1 4.46 6.91 6.91 0 01-.85 1.13s-2-4.19-2.34-4.19a.72.72 0 00-.6.72 49.29 49.29 0 012.29 4.44c-.13.19-.88 1.25-1 1.09s-1.88-4.9-2.35-4.87a.78.78 0 00-.62 1c.12.4 2.4 4.53 2.25 4.68s-.6.72-.6.72-3.06-4.62-3.25-4.65-1 .56-.78.78a47 47 0 013.1 4.59c-.1.16-.47.56-.6.53s-4.7-5.68-8.81-11.18S9.68 27.73 9.68 27.73s8.5-5.94 8.93-5.56 6.82 11.68 8 11.5S39.3 20.54 41.74 17.6s5-5.5 5.37-5.5 7.25 8.32 7.13 8.5zm-32.84-2.5c.25-.19-.35-.72-.63-.82A10.06 10.06 0 0012 27.32c-.25.32 3 4.41 3 4.41a2.76 2.76 0 00.87-.63 31.78 31.78 0 00-2-3.34c-.19-.22 1.28-1.16 1.53-1.34zM47 15.48a28.44 28.44 0 003.25 4A1.15 1.15 0 0051 19c.06-.25-2.86-4.58-3.31-4.25-.23.1-.76.35-.69.73z" fill="#fff"/></svg>